<svg width="145" height="24" viewBox="0 0 145 24" fill="none" xmlns="http://www.w3.org/2000/svg">
<path fill-rule="evenodd" clip-rule="evenodd" d="M41.7973 23.5C39.4893 23.5 37.4327 23.0315 35.6274 22.0946C33.845 21.1577 32.4396 19.8323 31.4113 18.1185C30.4058 16.4046 29.9031 14.3708 29.9031 12.0171C29.9031 9.64059 30.4058 7.59538 31.4113 5.88152C32.4396 4.16766 33.845 2.84228 35.6274 1.90537C37.4327 0.968455 39.4893 0.5 41.7973 0.5C44.1281 0.5 46.1848 0.968455 47.9672 1.90537C49.7496 2.84228 51.155 4.16766 52.1833 5.88152C53.2116 7.59538 53.7257 9.64059 53.7257 12.0171C53.7257 14.3708 53.2116 16.4046 52.1833 18.1185C51.155 19.8323 49.7496 21.1577 47.9672 22.0946C46.1848 23.0315 44.1281 23.5 41.7973 23.5ZM47.14 18.9892L45.1063 15.4666C44.633 14.6469 43.5848 14.366 42.7651 14.8393C41.9454 15.3126 41.6645 16.3607 42.1378 17.1805L43.9478 20.3156C43.2695 20.4504 42.5527 20.5179 41.7973 20.5179C40.1977 20.5179 38.7466 20.198 37.4441 19.5581C36.1415 18.9183 35.1132 17.9699 34.3591 16.7131C33.605 15.4563 33.228 13.891 33.228 12.0171C33.228 10.1433 33.605 8.57799 34.3591 7.32116C35.1132 6.06433 36.1415 5.116 37.4441 4.47615C38.7466 3.81346 40.1977 3.48212 41.7973 3.48212C43.4426 3.48212 44.9051 3.81346 46.1848 4.47615C47.4644 5.116 48.4813 6.06433 49.2354 7.32116C49.9895 8.57799 50.3666 10.1433 50.3666 12.0171C50.3666 13.891 49.9895 15.4563 49.2354 16.7131C48.6797 17.6394 47.9812 18.398 47.14 18.9892ZM3.29061 2.52235C3.29061 1.61368 2.55398 0.877049 1.64531 0.877049C0.736628 0.877049 0 1.61368 0 2.52235V21.673C0 22.4738 0.649167 23.123 1.44996 23.123H14.9106C15.7246 23.123 16.3845 22.4631 16.3845 21.649C16.3845 20.835 15.7246 20.1751 14.9106 20.1751H3.89681C3.56202 20.1751 3.29061 19.9037 3.29061 19.5689V2.52235ZM23.1181 0.877049C22.2094 0.877049 21.4728 1.61368 21.4728 2.52235V21.4776C21.4728 22.3863 22.2094 23.123 23.1181 23.123C24.0268 23.123 24.7634 22.3863 24.7634 21.4776V2.52235C24.7634 1.61368 24.0268 0.877049 23.1181 0.877049ZM75.2475 2.52236V14.1766C75.2475 15.8905 74.9276 17.2044 74.2878 18.1185C73.6708 19.0325 72.8481 19.661 71.8198 20.0037C70.7915 20.3465 69.6604 20.5179 68.4264 20.5179C67.1467 20.5179 65.9813 20.3465 64.9301 20.0037C63.8789 19.661 63.0334 19.0325 62.3936 18.1185C61.7766 17.2044 61.4681 15.8905 61.4681 14.1766V2.52235C61.4681 1.61368 60.7315 0.877049 59.8228 0.877049C58.9141 0.877049 58.1775 1.61368 58.1775 2.52235V14.3137C58.1775 15.6391 58.3375 16.8045 58.6574 17.81C59.0002 18.8155 59.4686 19.6838 60.0627 20.4151C60.6797 21.1463 61.411 21.7404 62.2565 22.1975C63.1248 22.6316 64.0732 22.9516 65.1015 23.1572C66.1298 23.3857 67.2381 23.5 68.4264 23.5C69.569 23.5 70.643 23.3857 71.6484 23.1572C72.6768 22.9516 73.6022 22.6316 74.4249 22.1975C75.2704 21.7404 76.0016 21.1463 76.6186 20.4151C77.2356 19.6838 77.7041 18.8155 78.024 17.81C78.3668 16.8045 78.5381 15.6391 78.5381 14.3137V2.52236C78.5381 1.61368 77.8015 0.877049 76.8928 0.877049C75.9842 0.877049 75.2475 1.61368 75.2475 2.52236ZM84.6379 2.52235C84.6379 1.61368 85.3745 0.877049 86.2832 0.877049C87.1919 0.877049 87.9285 1.61368 87.9285 2.52235V21.4776C87.9285 22.3863 87.1919 23.123 86.2832 23.123C85.3745 23.123 84.6379 22.3863 84.6379 21.4776V2.52235ZM108.733 1.76826C107.179 1.17412 105.248 0.877049 102.94 0.877049H95.1705C94.5395 0.877049 94.028 1.3886 94.028 2.01962V21.9804C94.028 22.6114 94.5395 23.123 95.1705 23.123H102.94C105.157 23.123 107.042 22.8259 108.596 22.2317C110.15 21.6148 111.406 20.7807 112.366 19.7295C113.349 18.6783 114.057 17.4786 114.491 16.1304C114.948 14.7822 115.177 13.3768 115.177 11.9143C115.177 10.429 114.971 9.0236 114.56 7.69821C114.149 6.37283 113.463 5.19598 112.503 4.16766C111.566 3.13934 110.31 2.33954 108.733 1.76826ZM97.8898 20.1408C97.5743 20.1408 97.3186 19.8851 97.3186 19.5695V4.43045C97.3186 4.11494 97.5743 3.85917 97.8898 3.85917H102.906C104.665 3.85917 106.116 4.08768 107.259 4.54471C108.402 4.97889 109.304 5.58445 109.967 6.3614C110.652 7.1155 111.132 7.97243 111.406 8.93219C111.704 9.89195 111.852 10.886 111.852 11.9143C111.852 12.9198 111.704 13.9138 111.406 14.8964C111.132 15.879 110.652 16.7702 109.967 17.57C109.304 18.347 108.402 18.9754 107.259 19.4553C106.116 19.9123 104.665 20.1408 102.906 20.1408H97.8898Z" fill="#272B22"/>
<path d="M135.081 14.5652L132.174 17.4725L127.385 22.2611C126.913 22.7334 126.147 22.7334 125.675 22.2611L122.254 18.8407C121.782 18.3684 121.782 17.6028 122.254 17.1305L127.043 12.3419C127.232 12.153 127.232 11.8468 127.043 11.6579L122.254 6.86931C121.782 6.39705 121.782 5.63137 122.254 5.15911L125.675 1.73872C126.147 1.26646 126.913 1.26646 127.385 1.73872L129.779 4.13299L132.516 6.86931" stroke="#F4694D" stroke-width="2.55556" stroke-linecap="round"/>
<path d="M129.887 9.43455L131.34 7.98088L132.794 6.52721L137.582 1.73866C138.055 1.2664 138.82 1.2664 139.293 1.73866L142.713 5.15906C143.185 5.63131 143.185 6.397 142.713 6.86925L137.924 11.6578C137.736 11.8467 137.736 12.153 137.924 12.3419L142.713 17.1304C143.185 17.6027 143.185 18.3684 142.713 18.8406L139.293 22.261C138.82 22.7333 138.055 22.7333 137.582 22.261L135.188 19.8668L132.452 17.1304" stroke="#F4694D" stroke-width="2.55556" stroke-linecap="round"/>
</svg>
