<svg width="216" height="121" viewBox="0 0 216 121" fill="none" xmlns="http://www.w3.org/2000/svg">
<path d="M60.25 51.6901L75.05 49.7601V14.2501L78.97 8.23004H56.33L60.34 14.42L41.7 53.4401L23.4 14.83L26.83 8.31003L0 0.0400391L8.68002 14.58V119.76L23.4 89.46V36.73L41.87 75.2501L60.25 36.64V51.6901Z" fill="#072642"/>
<path d="M74.96 59.1201L60.25 56.78V95.0601L56.74 101.08H78.97L74.96 94.89V59.1201Z" fill="#072642"/>
<path d="M188.43 8.34L192.03 14.75V67.34L167.1 14.68L171.12 8.34H148.69L152.26 14.71V49.36L167.04 51.94V36.86L207.13 120.65V14.5L215.71 0L188.43 8.34Z" fill="#072642"/>
<path d="M167.04 56.75L152.35 58.81L152.6 94.75L148.69 101.16H170.83L167.04 95V56.75Z" fill="#072642"/>
<path d="M155.73 53.64L119.33 48.44C119.09 48.4 118.89 48.23 118.84 47.99L114.27 29.55C114.12 28.94 113.25 28.94 113.1 29.55L108.44 48.36C108.38 48.6 108.18 48.78 107.94 48.81L73.09 53.57C72.4 53.66 72.4 54.6601 73.09 54.7601L108.14 59.85C108.38 59.88 108.57 60.06 108.63 60.29L113.12 78.93C113.28 79.53 114.13 79.52 114.28 78.93L119.01 60.31C119.07 60.07 119.27 59.9 119.51 59.86L155.71 54.84C156.4 54.74 156.4 53.75 155.71 53.65L155.73 53.64Z" fill="#F5884E"/>
<path d="M96.3499 46.96C98.2099 31.91 105.26 20.7 113.69 20.7C122.12 20.7 129.05 31.71 130.98 46.55L143.57 48.6901C141.62 25.7501 128.97 8.04004 113.64 8.04004C98.31 8.04004 85.64 25.76 83.7 48.72L96.34 46.96H96.3499Z" fill="#072642"/>
<path d="M113.69 88.9401C105.04 88.9401 97.8299 77.13 96.2099 61.47L83.6299 59.97C85.2799 83.4 98.0899 101.64 113.65 101.64C129.21 101.64 142.05 83.3501 143.67 59.8801L131.16 61.64C129.51 77.21 122.32 88.9301 113.7 88.9301L113.69 88.9401Z" fill="#072642"/>
</svg>
